<svg xmlns="http://www.w3.org/2000/svg" xmlns:xlink="http://www.w3.org/1999/xlink" version="1.1" id="Privacy_and_Policy" x="0px" y="0px" viewBox="0 0 1920 1080" style="enable-background:new 0 0 1920 1080;" xml:space="preserve">
<style xmlns="http://www.w3.org/2000/svg" type="text/css">
	.st0{opacity:0.1;fill:#2A94F4;}
	.st1{fill:#0B4870;}
	.st2{fill:#2A94F4;}
	.st3{fill:#FCD2B1;}
	.st4{fill:#FFE3CA;}
	.st5{fill:#0E538C;}
	.st6{fill:#F9F3ED;}
	.st7{fill:#D3D3D3;}
	.st8{fill:#F7F7F7;}
	.st9{fill:#CCE9FF;}
	.st10{fill:#ffbe55;}
	.st11{fill:#333333;}
</style>
<path xmlns="http://www.w3.org/2000/svg" class="st0" d="M1201.97,1006.8c28.08-13.25,475.74-6.99,404.54-333.04c-71.2-326.05-525.97-287.21-636.78-513.76  C858.92-66.53,561.18,30.56,392.89,198.84C221.93,369.8,56.31,1143.85,1039.81,794.92c382.75-135.79,143.34,199.95,143.34,199.95"/>
<path xmlns="http://www.w3.org/2000/svg" class="st1" d="M947.89,58c-53.59-8.92-106.72,18.87-129.56,68.16c-6.67,14.38-12.53,31.19-16.82,50.74  c-22.29,101.56-34.6,170.92-127.53,240.28s110.53,284.55,214.4,195.54s279.74,22.87,319.38-42.99  c39.63-65.85-32.04-137.69,2.48-192.18c34.51-54.5,67.05-255.14-27.08-322.02C1089.02-11.36,970.42-26.22,947.89,58L947.89,58z"/>
<path xmlns="http://www.w3.org/2000/svg" class="st2" d="M920.17,479.11c0,0-225.17-20.44-180.59,514.44h490.47c0,0,46.45-503.3-180.67-514.44H920.17z"/>
<path xmlns="http://www.w3.org/2000/svg" class="st3" d="M935.28,323.67c0,0-17.34,170.3-14.86,204.98s107.03,64.4,126.33,14.86c11.69-30.01-19.3-219.84-19.3-219.84  H935.28z"/>
<path xmlns="http://www.w3.org/2000/svg" class="st4" d="M1131.43,112.59c0,0,126.35,291.28-64.54,318.1c-49.26,6.92-120.48-47.57-131.62-87.21  c-9.77-34.72-26.42-8.05-39.1-37.65c-17.31-40.43-5.39-156.77,31.67-81.87c27.25,55.09,84.22-102.39,138.72-77.62  C1121.06,171.12,1131.43,112.59,1131.43,112.59z"/>
<g xmlns="http://www.w3.org/2000/svg">
	<g>
		<path class="st5" d="M843.12,1069.5l-179.1-565.74c0,0-143.46,66.01-229.7,121.92c0,0,52.72,144.64,91.84,223.79    c39.12,79.15,59.32,104.79,124.22,138.02C715.28,1020.73,843.12,1069.5,843.12,1069.5z"/>
		<path class="st5" d="M843.12,1069.5l-179.1-565.74c0,0,155.31-28.57,258.01-32.48c0,0,40.12,148.63,53.68,235.87    c13.56,87.24,11.79,119.84-22.16,184.37C919.6,956.05,843.12,1069.5,843.12,1069.5z"/>
	</g>
	<path class="st6" d="M459.26,634.11c14.64,39.26,54.51,144.1,85.25,206.3c36.94,74.76,54.35,97.72,115.2,128.87   c50.08,25.64,139.83,61.3,175.5,75.22l0,0L670.25,523.43l0,0C652.51,531.68,537.74,585.56,459.26,634.11z"/>
	<path class="st6" d="M935.44,881.99c31.83-60.49,32.86-89.3,20.05-171.69c-10.65-68.53-38.39-177.23-49-217.77   c-92.12,5.46-216.99,27.44-236.24,30.9L835.2,1044.5C856.37,1012.59,909.24,931.79,935.44,881.99z"/>
	<path class="st5" d="M474.31,639.3c17.25,45.89,53.05,138.7,81.2,195.67c35.44,71.72,50.86,93.21,109.79,123.39   c45.68,23.39,124.93,55.29,165.14,71.09c0,0,0,0,0,0L673.98,535.23l0,0C656,543.63,550.34,593.42,474.31,639.3z"/>
	<path class="st5" d="M924.58,876.27c30.83-58.59,31.07-85.03,18.78-164.09c-9.75-62.76-33.89-159.27-46.2-206.75   c-88.58,6.23-203.64,26.32-223.18,29.8l156.46,494.21C854.22,993.4,900.67,921.71,924.58,876.27z"/>
</g>
<g xmlns="http://www.w3.org/2000/svg">
	<path class="st7" d="M1053.58,1042.09l313.33,34.33c9.67,1.06,18.38-5.92,19.44-15.6l59.63-544.21c1.06-9.67-5.92-18.38-15.6-19.44   l-330.85-36.25l-61.55,561.72C1036.92,1032.33,1043.91,1041.03,1053.58,1042.09z"/>
	<path class="st8" d="M1423.69,496.45l-11.72-1.28l-312.44-34.24l-11.72-1.28c-13.37-1.47-25.4,8.19-26.87,21.56l-58.17,530.81   c-1.47,13.37,8.19,25.4,21.56,26.87l299.94,32.87c13.37,1.47,25.4-8.19,26.87-21.56l26.58-242.59l11.72,1.28   c13.37,1.47,25.4-8.19,26.87-21.56l28.93-264.01C1446.72,509.95,1437.06,497.92,1423.69,496.45z"/>
</g>
<g xmlns="http://www.w3.org/2000/svg">
	<path class="st9" d="M886.76,794.92V706c0-28.42,26.24-49.56,47.37-49.56h51.02c35.71,0,54.66,21.14,54.66,49.56v88.92h43.73V706   c0-52.48-38.63-93.29-98.39-93.29h-51.02c-45.19,0-91.1,40.81-91.1,93.29v88.92H886.76z"/>
	<path class="st10" d="M1105.41,1022.32c0,24.05-14.58,42.27-38.63,42.27h-199.7c-24.05,0-45.92-18.22-45.92-42.27V808.04   c0-24.05,21.86-27.7,45.92-27.7h199.7c24.05,0,38.63,3.64,38.63,27.7V1022.32L1105.41,1022.32z"/>
	<path class="st11" d="M1002.64,891.86c0-20.41-16.03-37.17-36.44-37.17s-35.71,16.76-35.71,37.17c0,14.58,7.29,26.24,21.86,32.8   v68.51c0,9.47,5.1,16.76,14.58,16.76s14.58-7.29,14.58-16.76v-68.51C996.08,918.09,1002.64,906.43,1002.64,891.86z"/>
</g>
<g xmlns="http://www.w3.org/2000/svg">
	<path class="st4" d="M773.42,987.23l58.6-15.16c0,0,7.13-27.88,20.51-38.46s29.42-18.6,36.55-17.71   c7.13,0.89-8.02,20.51-15.16,29.42s3.57,11.59,32.1-8.02c28.53-19.61,52.6-25.92,59.73,14.23c7.13,40.15-33.88,58.88-83.81,58.88   c-49.93,0-89.13,28.1-89.13,28.1S718.38,1031.81,773.42,987.23z"/>
	<path class="st2" d="M526.16,849.47c0,0-21.9,1.2-41.72,40.83c-19.82,39.63,5.46,229.12,350.76,154.19l-22.74-71.81   C812.47,972.68,545.92,892.11,526.16,849.47z"/>
</g>
<g xmlns="http://www.w3.org/2000/svg">
	<path class="st4" d="M1162.88,987.23l-58.6-15.16c0,0-7.13-27.88-20.51-38.46s-29.42-18.6-36.55-17.71   c-7.13,0.89,8.02,20.51,15.16,29.42s-3.57,11.59-32.1-8.02c-28.53-19.61-52.6-25.92-59.73,14.23   c-7.13,40.15,33.88,58.88,83.81,58.88s89.13,28.1,89.13,28.1S1217.91,1031.81,1162.88,987.23z"/>
	<path class="st2" d="M1409.61,849.47c0,0,21.9,1.2,41.72,40.83c19.82,39.63-5.46,229.12-350.76,154.19l22.74-71.81   C1123.3,972.68,1389.85,892.11,1409.61,849.47z"/>
</g>
</svg>